# xmcd CD database file
# Copyright (C) 1997 Ti Kan
#
# Track frame offsets:
#  150
#  13550
#  28540
#  43105
#  57422
#  72715
#  89750
#  103507
#  118140
#  131845
#  145555
#  158410
#  172237
#  185940
#  199372
#  213617
#  225907
#  239550
#  254667
#  269252
#  283637
#  298115
#  311710
#  325947
#
# Disc length: 4530 seconds
#
# Revision: 1
# Processed by: cddbd v1.4b41PL1 Copyright (c) Steve Scherf et al.
# Submitted via: CDWizzard Release:4.31
#
DISCID=8211b018
DTITLE=Sleepy John Estes - Complete Recorded Works In Chronological Order
DTITLE=Various Artist - Volume 1 
DYEAR=1900
DGENRE=
TTITLE0=The Girl I Love, She Got Long Curly Hair
TTITLE1=Broken-Hearted, Ragged And Dirty Too
TTITLE2=Divin' Duck Blues
TTITLE3=Little Sarah (James "Yank" Rachel, vocal)
TTITLE4=Black Mattie Blues
TTITLE5=T-Bone Steak Blues (James "Yank" Rachel, vocal)
TTITLE6=Milk Cow Blues
TTITLE7=Street Car Blues
TTITLE8=Expressman Blues (James "Yank" Rachel, vocal)
TTITLE9=Whatcha Doin'?
TTITLE10=Poor John Blues
TTITLE11=Stack O' Dollars
TTITLE12=My Black Gal Blues
TTITLE13=Sweet Mama (James "Yank" Rachel, vocal)
TTITLE14=Down South Blues
TTITLE15=Stop That Thing
TTITLE16=Someday Baby Blues
TTITLE17=Who's Been Telling You Buddy Brown Blues
TTITLE18=Married Woman Blues
TTITLE19=Drop Down Mama
TTITLE20=Government Money
TTITLE21=I Wanta Tear It All The Time
TTITLE22=Vernita Blues
TTITLE23=I Ain't Gonna Be Worried No More
EXTD=
EXTT0=
EXTT1=
EXTT2=
EXTT3=
EXTT4=
EXTT5=
EXTT6=
EXTT7=
EXTT8=
EXTT9=
EXTT10=
EXTT11=
EXTT12=
EXTT13=
EXTT14=
EXTT15=
EXTT16=
EXTT17=
EXTT18=
EXTT19=
EXTT20=
EXTT21=
EXTT22=
EXTT23=
PLAYORDER=
